<?xml version="1.0" encoding="utf-8"?>
<!-- Generator: Adobe Illustrator 28.2.0, SVG Export Plug-In . SVG Version: 6.00 Build 0)  -->
<svg version="1.1" id="Layer_1" xmlns="http://www.w3.org/2000/svg" xmlns:xlink="http://www.w3.org/1999/xlink" x="0px" y="0px"
	 viewBox="0 0 128 128" style="enable-background:new 0 0 128 128;" xml:space="preserve">
<style type="text/css">
	.st0{fill:#03011C;}
	.st1{fill:#E5BDDC;}
	.st2{fill:#5747B6;}
	.st3{fill:#B7A6E8;}
	.st4{fill:none;stroke:#B9A8E8;stroke-miterlimit:10;}
</style>
<g>
	<path class="st0" d="M115.87,128H12.13C5.43,128,0,122.57,0,115.87V12.13C0,5.43,5.43,0,12.13,0h103.75
		C122.57,0,128,5.43,128,12.13v103.75C128,122.57,122.57,128,115.87,128z"/>
</g>
<g>
	<path class="st1" d="M89.72,50.28c-5.14,0-9.13-1.23-11.95-3.7c-2.83-2.46-4.24-6.12-4.24-10.97c0-4.82,1.41-8.46,4.24-10.92
		C80.6,22.23,84.68,21,90.01,21h7.27c5.33,0,9.41,1.23,12.24,3.69c2.83,2.46,4.24,6.11,4.24,10.92c0,4.85-1.41,8.5-4.24,10.97
		c-2.83,2.46-6.84,3.7-12.04,3.7H89.72z M90.45,26.25c-2.99,0-5.32,0.54-6.99,1.62c-1.67,1.08-2.72,2.79-3.15,5.13h26.65
		c-0.43-2.34-1.48-4.05-3.15-5.13c-1.67-1.08-4-1.62-6.99-1.62H90.45z M90.57,45.03h6.26c3.01,0,5.35-0.54,7.01-1.62
		c1.66-1.08,2.7-2.8,3.13-5.17H80.31c0.43,2.37,1.48,4.09,3.15,5.17C85.13,44.49,87.5,45.03,90.57,45.03z"/>
</g>
<g>
	<path class="st2" d="M15.64,50.94l10.82-14.42L15.64,22.06h7.88l8.68,11.83h3.72l8.68-11.83h7.88L41.65,36.52l10.82,14.42h-7.92
		l-8.64-11.79H32.2l-8.64,11.79H15.64z"/>
</g>
<g>
	<path class="st3" d="M16.64,105.86l10.82-14.42L16.64,76.99h7.88l8.68,11.83h3.72l8.68-11.83h7.88L42.65,91.44l10.82,14.42h-7.92
		l-8.64-11.79H33.2l-8.64,11.79H16.64z"/>
</g>
<g>
	<path class="st2" d="M89.79,106c-5.14,0-9.13-1.23-11.95-3.7c-2.83-2.46-4.24-6.12-4.24-10.97c0-4.82,1.41-8.46,4.24-10.92
		c2.83-2.46,6.91-3.69,12.24-3.69h7.27c5.33,0,9.41,1.23,12.24,3.69s4.24,6.11,4.24,10.92c0,4.85-1.41,8.5-4.24,10.97
		s-6.84,3.7-12.04,3.7H89.79z M90.52,81.97c-2.99,0-5.32,0.54-6.99,1.62c-1.67,1.08-2.72,2.79-3.15,5.13h26.65
		c-0.43-2.34-1.48-4.05-3.15-5.13s-4-1.62-6.99-1.62H90.52z M90.64,100.75h6.26c3.01,0,5.35-0.54,7.01-1.62
		c1.66-1.08,2.7-2.8,3.13-5.17H80.38c0.43,2.37,1.48,4.09,3.15,5.17C85.2,100.21,87.57,100.75,90.64,100.75z"/>
</g>
<line class="st4" x1="63" y1="21" x2="63" y2="107"/>
<line class="st4" x1="114" y1="64.12" x2="14" y2="64.12"/>
</svg>
